<svg width="37" height="40" fill="none" xmlns="http://www.w3.org/2000/svg"><path d="M18.65 3.822a1.455 1.455 0 0 0-1.244-.479c-.46.054-.872.332-1.122.756L9.86 15H6.111c-1.687 0-3.055 1.493-3.055 3.334v15c0 1.84 1.368 3.333 3.055 3.333H24.21c3.532 0 6.604-2.642 7.428-6.389l2.554-11.611c.692-3.144-1.492-6.167-4.456-6.167h-8.347V8.19c0-.884-.322-1.731-.895-2.356L18.65 3.822Zm-6.428 29.511V17.157l5.608-9.515.503.55v5.976c0 .92.684 1.667 1.528 1.667h9.875c.988 0 1.716 1.007 1.485 2.055L28.667 29.5c-.495 2.248-2.338 3.834-4.457 3.834H12.222Zm-3.055 0H6.11v-15h3.056v15Z" fill="#fff"/></svg>