<svg width="28" height="28" fill="none" xmlns="http://www.w3.org/2000/svg"><path d="M13.8 0C6.186 0 0 6.186 0 13.8c0 2.447.671 4.732 1.79 6.725L.023 26.838a.6.6 0 0 0 .722.744l6.583-1.63C9.26 26.983 11.456 27.6 13.8 27.6c7.614 0 13.8-6.186 13.8-13.8C27.6 6.186 21.414 0 13.8 0Zm0 1.2c6.966 0 12.6 5.634 12.6 12.6 0 6.966-5.634 12.6-12.6 12.6-2.233 0-4.325-.582-6.143-1.6a.6.6 0 0 0-.437-.058L1.455 26.17l1.546-5.515a.6.6 0 0 0-.06-.467A12.528 12.528 0 0 1 1.2 13.8c0-6.966 5.634-12.6 12.6-12.6ZM8.786 6.6c-.385 0-.934.143-1.386.63C7.13 7.52 6 8.621 6 10.555c0 2.017 1.399 3.758 1.568 3.981h.001v.001a19 19 0 0 0 1.802 2.21c1.083 1.14 2.604 2.456 4.492 3.262.87.37 1.556.594 2.076.757.963.302 1.84.256 2.5.16.493-.073 1.035-.31 1.572-.65.537-.34 1.063-.762 1.295-1.404.166-.46.25-.885.281-1.235.015-.175.017-.33.006-.472-.011-.143 0-.253-.133-.471-.279-.46-.595-.471-.925-.634-.184-.091-.706-.346-1.23-.596-.523-.249-.976-.47-1.255-.57-.176-.063-.391-.154-.702-.119-.31.035-.617.26-.795.524-.17.25-.85 1.055-1.059 1.291-.002-.001.016.007-.066-.034-.257-.127-.571-.235-1.036-.48a8.573 8.573 0 0 1-1.683-1.168v-.002c-.947-.833-1.61-1.88-1.82-2.232.014-.017-.002.003.028-.026l.001-.001c.214-.21.404-.462.564-.647.227-.261.327-.492.436-.708.216-.43.096-.902-.03-1.15v-.002c.01.018-.067-.15-.15-.345l-.3-.717c-.224-.54-.475-1.144-.624-1.498V7.58c-.176-.417-.413-.718-.724-.863-.311-.145-.586-.104-.597-.104-.223-.01-.466-.013-.707-.013Zm0 1.2c.23 0 .459.003.65.012.196.01.184.01.146-.007-.038-.018.014-.024.126.241.146.347.398.954.623 1.494.113.27.218.524.303.723.084.2.13.31.182.416v.002h.002c.052.103.047.038.029.073-.127.252-.144.313-.272.46-.195.226-.394.476-.5.58-.091.09-.258.231-.361.507-.104.277-.056.656.111.939.222.377.954 1.568 2.09 2.569a9.812 9.812 0 0 0 1.917 1.33c.532.28.967.445 1.064.493.23.114.482.203.775.168.294-.036.546-.213.707-.395l.001-.002c.214-.242.85-.969 1.156-1.416.013.004.009 0 .11.037v.001h.001c.046.017.627.277 1.144.523.517.247 1.042.503 1.213.587.246.122.362.201.392.202.002.053.004.11-.003.197a3.817 3.817 0 0 1-.215.931c-.063.175-.392.536-.807.798-.415.263-.92.448-1.108.476-.562.083-1.23.113-1.964-.117a20.066 20.066 0 0 1-1.964-.716c-1.665-.71-3.08-1.92-4.092-2.984a17.837 17.837 0 0 1-1.199-1.402c-.287-.375-.413-.57-.518-.707v-.001c-.187-.246-1.325-1.83-1.325-3.256 0-1.51.701-2.101 1.08-2.51a.711.711 0 0 1 .506-.246Z" fill="#fff"/></svg>