<svg width="28" height="28" fill="none" xmlns="http://www.w3.org/2000/svg"><path d="M13.8 0C6.186 0 0 6.186 0 13.8c0 7.614 6.186 13.8 13.8 13.8 7.614 0 13.8-6.186 13.8-13.8C27.6 6.186 21.414 0 13.8 0Zm0 1.2c6.966 0 12.6 5.634 12.6 12.6 0 6.966-5.634 12.6-12.6 12.6-6.966 0-12.6-5.634-12.6-12.6 0-6.966 5.634-12.6 12.6-12.6Zm5.453 6.021c-.41 0-.872.095-1.411.29-.838.301-10.69 4.484-11.81 4.96-.641.272-1.834.78-1.834 1.988 0 .8.469 1.373 1.393 1.704.497.177 1.677.534 2.361.723.29.08.6.12.917.12.62 0 1.246-.154 1.735-.428-.004.101-.001.203.01.305.075.63.463 1.223 1.04 1.586.376.237 3.454 2.3 3.913 2.627.646.462 1.36.706 2.063.706 1.344 0 1.795-1.388 2.012-2.055.315-.968 1.494-8.838 1.628-10.226.09-.95-.306-1.734-1.061-2.095a2.187 2.187 0 0 0-.956-.205Zm0 1.2c.165 0 .312.027.437.088.284.136.428.44.384.899-.145 1.514-1.322 9.197-1.572 9.968-.215.659-.441 1.226-.872 1.226s-.902-.151-1.365-.483a243.433 243.433 0 0 0-3.972-2.666c-.375-.237-.772-.826-.213-1.396.46-.47 3.95-3.857 4.249-4.155.222-.223.118-.491-.1-.491a.417.417 0 0 0-.257.107c-.365.299-5.451 3.702-5.891 3.975-.292.182-.744.312-1.212.312-.2 0-.402-.024-.597-.077a45.459 45.459 0 0 1-2.277-.696c-.437-.156-.596-.306-.596-.573 0-.38.537-.643 1.103-.884.597-.254 10.938-4.645 11.746-4.936.375-.136.717-.218 1.005-.218Z" fill="#fff"/></svg>