<svg width="204" height="63" fill="none" xmlns="http://www.w3.org/2000/svg"><path d="M54.64 54.04c0 2.475-.896 4.608-2.688 6.4C50.245 62.147 48.155 63 45.68 63H9.84c-2.475 0-4.608-.853-6.4-2.56-1.707-1.792-2.56-3.925-2.56-6.4V9.24c0-2.475.853-4.565 2.56-6.272C5.232 1.176 7.365.28 9.84.28h35.84c2.475 0 4.565.896 6.272 2.688 1.792 1.707 2.688 3.797 2.688 6.272v44.8Zm-10.24 0V9.24H11.12v44.8H44.4ZM119.26 63h-8.96V25.88H83.42V63h-8.96V18.2h8.96v6.4l6.4-6.4h20.48c2.475 0 4.565.896 6.272 2.688 1.792 1.707 2.688 3.797 2.688 6.272V63Zm26.91-52.48h-8.96V.28h8.96v10.24Zm0 52.48h-8.96V24.6l8.96-8.96V63Zm57.595 0h-11.008l-12.16-17.664h-1.28L167.157 63h-10.752l17.792-23.552L157.685 18.2h10.752l11.136 15.872h1.28L191.477 18.2h11.008l-16.768 21.248L203.765 63Z" fill="#fff"/></svg>