<svg width="153" height="48" fill="none" xmlns="http://www.w3.org/2000/svg"><path d="M40.48 41.28c0 1.856-.672 3.456-2.016 4.8-1.28 1.28-2.848 1.92-4.704 1.92H6.88c-1.856 0-3.456-.64-4.8-1.92C.8 44.736.16 43.136.16 41.28V7.68c0-1.856.64-3.424 1.92-4.704C3.424 1.632 5.024.96 6.88.96h26.88c1.856 0 3.424.672 4.704 2.016 1.344 1.28 2.016 2.848 2.016 4.704v33.6Zm-7.68 0V7.68H7.84v33.6H32.8ZM88.945 48h-6.72V20.16h-20.16V48h-6.72V14.4h6.72v4.8l4.8-4.8h15.36c1.856 0 3.424.672 4.704 2.016 1.344 1.28 2.016 2.848 2.016 4.704V48Zm20.183-39.36h-6.72V.96h6.72v7.68Zm0 39.36h-6.72V19.2l6.72-6.72V48Zm43.196 0h-8.256l-9.12-13.248h-.96L124.868 48h-8.064l13.344-17.664L117.764 14.4h8.064l8.352 11.904h.96l7.968-11.904h8.256l-12.576 15.936L152.324 48Z" fill="#000"/></svg>