<svg xmlns="http://www.w3.org/2000/svg" xmlns:xlink="http://www.w3.org/1999/xlink"><symbol id="comb"><path d="M10.762.924 1.117 10.57c-.48.48-.48 1.247 0 1.727l.976.976.511.496 1.904 1.903a.328.328 0 0 0 .464-.464l-1.728-1.711c-.112-.112-.112-.272 0-.384s.272-.112.384 0l1.712 1.711a.328.328 0 0 0 .463-.464l-1.711-1.695c-.112-.112-.112-.272 0-.384s.272-.112.384 0l1.711 1.711a.328.328 0 0 0 .464-.463l-1.727-1.696c-.112-.112-.112-.272 0-.384s.272-.112.384 0l1.711 1.712a.328.328 0 0 0 .464-.464L5.77 10.985c-.112-.112-.112-.272 0-.383s.272-.112.384 0l1.712 1.711a.328.328 0 0 0 .464-.464l-1.728-1.695c-.112-.112-.112-.272 0-.384s.272-.112.384 0l1.712 1.711a.328.328 0 0 0 .463-.464L7.451 9.306c-.112-.112-.112-.272 0-.384s.272-.112.384 0l1.711 1.712a.328.328 0 0 0 .464-.464L8.283 8.474c-.112-.112-.112-.272 0-.384s.272-.112.384 0l1.711 1.712a.328.328 0 0 0 .464-.464L9.13 7.626c-.112-.112-.112-.272 0-.383s.272-.112.384 0L11.21 8.97a.328.328 0 0 0 .464-.464L9.962 6.795c-.112-.112-.112-.272 0-.384s.272-.112.384 0l1.712 1.711a.328.328 0 0 0 .463-.464l-1.727-1.695c-.112-.112-.112-.272 0-.384s.272-.112.384 0l1.711 1.712a.328.328 0 0 0 .464-.464l-1.711-1.712c-.112-.112-.112-.272 0-.384s.272-.112.384 0l1.711 1.712a.328.328 0 0 0 .464-.464l-1.728-1.696c-.112-.112-.112-.272 0-.383s.272-.112.384 0L14.57 5.61a.328.328 0 0 0 .464-.464L13.32 3.436c-.112-.112-.112-.272 0-.384s.272-.112.384 0l1.696 1.711a.328.328 0 0 0 .463-.464l-1.903-1.887-.512-.512-.976-.976a1.226 1.226 0 0 0-1.711 0z"/></symbol><symbol id="fb"><path fill="#FFF" d="M12 4V0H8a4 4 0 0 0-4 4v4H0v4h4v10h4V12h4V8H8V4h4z"/></symbol><symbol id="insta"><path fill="#FFF" d="M18 0H3C1.35 0 0 1.35 0 3v15c0 1.65 1.35 3 3 3h15c1.65 0 3-1.35 3-3V3c0-1.65-1.35-3-3-3zm-7.5 7c1.93 0 3.5 1.57 3.5 3.5S12.43 14 10.5 14 7 12.43 7 10.5 8.57 7 10.5 7zM18 18H3V9h1.181A6.504 6.504 0 0 0 4 10.5a6.5 6.5 0 1 0 13 0 6.45 6.45 0 0 0-.181-1.5H18v9zm0-11h-4V3h4v4z"/></symbol><symbol id="login"><path d="M0 7h7.01V4.06l3.95 3.95-3.95 3.9V9.06L0 9.02V7z"/><path d="M7.01 0v2h7.02v11.99H7.01V16H16V0H7.01z"/></symbol><symbol id="vk"><path fill="#FFF" d="M16.138 11.51c.956-.309 2.18 2.04 3.483 2.939.978.681 1.727.534 1.727.534l3.473-.05s1.815-.112.957-1.554c-.071-.12-.503-1.069-2.585-3.022-2.177-2.043-1.882-1.712.739-5.244 1.597-2.153 2.236-3.468 2.036-4.028-.192-.539-1.365-.399-1.365-.399L20.69.713c-.381.001-.704.119-.851.515-.003.004-.621 1.666-1.445 3.079-1.741 2.989-2.436 3.148-2.724 2.961-.661-.433-.494-1.737-.494-2.664 0-2.897.432-4.105-.846-4.417-.427-.104-.739-.172-1.828-.182-1.392-.021-2.574 0-3.244.329-.445.223-.786.712-.579.74.26.035.843.16 1.155.586.401.552.389 1.789.389 1.789s.229 3.411-.54 3.834c-.528.29-1.25-.302-2.803-3.016-.793-1.388-1.392-2.922-1.392-2.922s-.116-.285-.326-.441c-.25-.185-.6-.244-.6-.244L.848.684S.29.7.085.946c-.182.218-.015.668-.015.668s2.909 6.881 6.203 10.347c3.02 3.182 6.452 2.971 6.452 2.971h1.555s.469-.054.709-.312c.224-.24.214-.691.214-.691s-.031-2.109.935-2.419z"/></symbol></svg>