<svg width="28" height="28" viewBox="0 0 28 28" fill="none" xmlns="http://www.w3.org/2000/svg">
<path d="M13.8 0C6.18572 0 0 6.18572 0 13.8C0 16.2475 0.671213 18.5315 1.79063 20.5254L0.0222656 26.8383C-0.00598556 26.9393 -0.00726205 27.046 0.0185635 27.1476C0.044389 27.2493 0.0964142 27.3424 0.169452 27.4177C0.242489 27.493 0.333988 27.5478 0.434823 27.5767C0.535659 27.6056 0.642309 27.6076 0.744141 27.5824L7.32656 25.9512C9.26078 26.9838 11.4556 27.6 13.8 27.6C21.4143 27.6 27.6 21.4143 27.6 13.8C27.6 6.18572 21.4143 0 13.8 0ZM13.8 1.2C20.7657 1.2 26.4 6.83428 26.4 13.8C26.4 20.7657 20.7657 26.4 13.8 26.4C11.5668 26.4 9.47527 25.8178 7.65703 24.8004C7.52405 24.7261 7.36778 24.7051 7.21992 24.7418L1.45547 26.1703L3.00117 20.6555C3.02329 20.5775 3.0294 20.4959 3.01913 20.4156C3.00885 20.3352 2.98242 20.2578 2.94141 20.1879C1.83641 18.3142 1.2 16.1341 1.2 13.8C1.2 6.83428 6.83428 1.2 13.8 1.2ZM8.78555 6.6C8.40092 6.6 7.85163 6.74309 7.40039 7.2293C7.12936 7.52133 6 8.62171 6 10.5563C6 12.5732 7.39884 14.3135 7.56797 14.5371H7.56914V14.5383C7.5531 14.5172 7.78382 14.8513 8.0918 15.252C8.39978 15.6526 8.83044 16.1788 9.37148 16.7484C10.4536 17.8877 11.975 19.2045 13.8633 20.0098C14.7329 20.3801 15.4189 20.6037 15.9387 20.7668C16.9019 21.0693 17.7792 21.0233 18.4383 20.9262C18.9316 20.8535 19.4741 20.6167 20.0109 20.277C20.5478 19.9372 21.0739 19.5148 21.3059 18.873C21.4721 18.4129 21.5566 17.9878 21.5871 17.6379C21.6024 17.463 21.6043 17.3086 21.593 17.1656C21.5816 17.0227 21.5938 16.9132 21.4605 16.6945C21.1812 16.2359 20.8649 16.2239 20.5348 16.0605C20.3514 15.9698 19.8292 15.7148 19.3055 15.4652C18.7823 15.216 18.3294 14.9952 18.0504 14.8957C17.8741 14.8323 17.6589 14.741 17.3484 14.7762C17.0379 14.8113 16.7313 15.0354 16.5527 15.3C16.3835 15.5508 15.7022 16.355 15.4945 16.5914C15.4918 16.5897 15.5098 16.598 15.4277 16.5574C15.1709 16.4303 14.8567 16.3222 14.3918 16.077C13.9269 15.8317 13.3454 15.4696 12.709 14.9086V14.9074C11.7618 14.0736 11.0984 13.0267 10.8891 12.675C10.9032 12.6582 10.8874 12.6785 10.9172 12.6492L10.9184 12.648C11.1323 12.4374 11.3218 12.1857 11.482 12.0012C11.7092 11.7395 11.8094 11.5089 11.918 11.2934C12.1344 10.8639 12.0139 10.3912 11.8887 10.1426V10.1414C11.8973 10.1586 11.8209 9.99009 11.7387 9.7957C11.6562 9.60076 11.551 9.34802 11.4387 9.07852C11.214 8.5395 10.9632 7.93495 10.8141 7.58086V7.57969C10.6384 7.16261 10.4006 6.86214 10.0898 6.71719C9.77905 6.57223 9.50447 6.61344 9.49336 6.61289H9.49219C9.2704 6.60266 9.02702 6.6 8.78555 6.6ZM8.78555 7.8C9.01687 7.8 9.24493 7.80282 9.43594 7.81172C9.63243 7.82151 9.62021 7.82232 9.58242 7.80469C9.54403 7.78678 9.59612 7.78097 9.70781 8.04609C9.85386 8.39281 10.1059 8.99955 10.3313 9.54023C10.4439 9.81058 10.5494 10.0643 10.6336 10.2633C10.7178 10.4623 10.7634 10.5734 10.8164 10.6793V10.6805L10.8176 10.6816C10.8695 10.7841 10.8649 10.7185 10.8469 10.7543C10.7203 11.0056 10.7031 11.0673 10.575 11.2148C10.38 11.4395 10.1811 11.69 10.0758 11.7938C9.98366 11.8842 9.81745 12.0252 9.71367 12.3012C9.60973 12.5775 9.65824 12.9567 9.825 13.2398C10.047 13.6168 10.7786 14.8076 11.9156 15.8086C12.6317 16.4398 13.2987 16.8576 13.8316 17.1387C14.3645 17.4198 14.7986 17.584 14.8957 17.632C15.1263 17.7462 15.3784 17.8348 15.6715 17.7996C15.9646 17.7644 16.2173 17.5866 16.3781 17.4047L16.3793 17.4035C16.5934 17.1608 17.2295 16.4344 17.5348 15.9867C17.5477 15.9913 17.5435 15.9877 17.6449 16.0242V16.0254H17.6461C17.6924 16.0419 18.2726 16.3016 18.7898 16.548C19.3071 16.7945 19.8321 17.0507 20.0027 17.1352C20.2489 17.257 20.3653 17.3363 20.3953 17.3367C20.3973 17.3895 20.3994 17.4467 20.3918 17.5336C20.3708 17.7746 20.3063 18.1081 20.1773 18.4652C20.1142 18.64 19.785 19.0006 19.3699 19.2633C18.9548 19.526 18.4496 19.7115 18.2625 19.7391C17.6999 19.822 17.032 19.8522 16.2984 19.6219C15.7898 19.4622 15.1556 19.2556 14.3344 18.9059C12.6689 18.1956 11.2534 16.9869 10.2422 15.9223C9.7366 15.3899 9.33154 14.8944 9.04336 14.5195C8.75572 14.1454 8.63012 13.9506 8.52539 13.8129L8.52422 13.8117C8.33832 13.5659 7.2 11.9825 7.2 10.5563C7.2 9.04679 7.9011 8.45486 8.28047 8.04609C8.47963 7.8315 8.69737 7.8 8.78555 7.8Z" fill="white"/>
</svg>
