<svg width="26" height="29" viewBox="0 0 26 29" fill="none" xmlns="http://www.w3.org/2000/svg">
<path d="M12.4555 0.600219C11.6375 0.604907 10.8172 0.654125 9.98985 0.754907C8.40782 0.949437 6.83985 1.27288 5.33516 1.96428C2.94219 3.0635 1.24531 4.92912 0.753126 7.64084C0.544533 8.78459 0.375782 9.94475 0.279689 11.1119C0.0945322 13.3783 0.209376 15.6518 0.851564 17.8854C1.35781 19.6455 2.29063 21.2276 3.92422 22.2541C4.61563 22.6877 5.52735 22.8986 6.00313 23.119C6.13672 23.1822 6.16954 23.2197 6.17657 23.2291C6.1836 23.2361 6.20235 23.2526 6.20001 23.3932C6.1836 24.8276 6.20001 27.6026 6.20001 27.6026L6.20235 28.2002H7.27344L7.44688 28.0315C7.44688 28.0315 10.168 25.4135 11.1524 24.3354C11.3305 24.1432 11.4219 24.0354 11.4406 24.0236C11.457 24.0119 11.4289 24.0049 11.6117 24.0002C12.9031 23.9744 14.1922 23.9252 15.4813 23.8549C17.1805 23.7611 18.9125 23.5994 20.5789 22.9033C22.0297 22.2963 23.2414 21.3049 23.975 19.819C24.725 18.2955 25.1258 16.6807 25.2758 15.0096C25.5242 12.2276 25.4375 9.44084 24.6688 6.69397C24.2164 5.08381 23.307 3.72209 21.9125 2.76116C20.2438 1.61272 18.3617 1.18147 16.5195 0.90725C15.4438 0.747875 14.3609 0.642407 13.2734 0.609594C13.0016 0.602563 12.7297 0.597875 12.4555 0.600219ZM13.2406 1.80959C14.2742 1.83772 15.3078 1.9385 16.3438 2.09319C18.1203 2.35803 19.7961 2.76116 21.2328 3.75022C22.3977 4.55178 23.1242 5.63459 23.5133 7.01506C24.2305 9.58381 24.3219 12.2158 24.0805 14.9041C23.9422 16.4533 23.5742 17.9135 22.8969 19.2893C22.2992 20.5033 21.3664 21.2744 20.1149 21.7971C18.6617 22.4041 17.082 22.5658 15.418 22.6572C14.143 22.7276 12.8656 22.7744 11.5883 22.8002C11.2672 22.8072 10.9531 22.8916 10.7305 23.0557C10.5078 23.2197 10.407 23.3721 10.2688 23.5221C9.56563 24.2908 8.16407 25.6432 7.40001 26.3838C7.39532 25.4885 7.38829 24.4057 7.40001 23.4072C7.40469 23.1002 7.33438 22.7861 7.1586 22.5377C6.98282 22.2893 6.74141 22.1393 6.50938 22.0315C5.83204 21.7174 4.9461 21.4783 4.56172 21.2369C3.21875 20.3932 2.45703 19.1276 2.00469 17.5526C1.41172 15.4924 1.29922 13.3713 1.475 11.2127C1.56875 10.0924 1.73047 8.96975 1.93438 7.85647C2.36094 5.51037 3.70157 4.03381 5.83438 3.05412C7.18204 2.43537 8.6211 2.13069 10.1375 1.94553C11.1711 1.81897 12.2047 1.77912 13.2406 1.80959ZM13.4938 4.80022C12.9992 4.80022 12.5188 4.85647 12.0524 4.95959C11.7313 5.03459 11.5274 5.35569 11.6 5.67912C11.6727 6.00256 11.9961 6.20412 12.3195 6.13147C12.6969 6.04475 13.0906 6.00022 13.4938 6.00022C16.4235 6.00022 18.786 8.36272 18.786 11.2901C18.786 11.6955 18.7414 12.0893 18.6547 12.469C18.582 12.7901 18.7836 13.1135 19.107 13.1862C19.4305 13.2588 19.7516 13.0549 19.8242 12.7315C19.9297 12.2674 19.986 11.7869 19.986 11.2901C19.986 7.7135 17.0727 4.80022 13.4938 4.80022ZM7.50782 6.00256C7.40938 5.99787 7.3086 6.0049 7.20313 6.02834C6.11329 6.26975 5.03047 7.05959 5 8.47053C5.03047 8.6674 5.02813 8.87834 5.10079 9.05647C5.45704 9.92834 5.76641 10.8283 6.21172 11.6533C8.37969 15.6611 11.6586 18.4479 15.8375 20.2174C16.3367 20.4283 16.8524 20.4729 17.3563 20.2619C18.05 19.9736 18.6383 19.5283 19.0297 18.8885C19.5664 18.0096 19.5735 17.4002 18.6899 16.751C18.111 16.3244 17.5414 15.8862 16.9555 15.469C16.0625 14.8362 15.0969 14.726 14.4313 15.8369C14.3961 15.8932 14.3445 15.9401 14.3 15.9869C13.9578 16.3502 13.5383 16.4393 13.093 16.2565C11.4031 15.5604 10.0977 14.4377 9.31016 12.7666C8.8461 11.7846 8.97266 11.2924 9.83985 10.6385C9.92657 10.5752 10.0086 10.5072 10.0883 10.4346C10.468 10.0877 10.5688 9.67521 10.3438 9.20881C9.83517 8.14475 9.15782 7.19553 8.30001 6.37756C8.06798 6.15725 7.80313 6.01897 7.50782 6.00256ZM13.4844 6.60022C13.2195 6.60022 12.957 6.62131 12.6992 6.66584C12.4813 6.69397 12.2961 6.83928 12.2164 7.04318C12.1367 7.24943 12.1766 7.48147 12.3172 7.65022C12.4602 7.81662 12.6852 7.89397 12.9008 7.84709C13.0883 7.81662 13.2852 7.80022 13.4844 7.80022C15.4344 7.80022 17 9.36584 17 11.3158C17 11.5151 16.9836 11.7119 16.9531 11.8994C16.9063 12.1151 16.9836 12.3401 17.15 12.483C17.3188 12.6237 17.5508 12.6635 17.757 12.5838C17.961 12.5041 18.1063 12.319 18.1344 12.101C18.1789 11.8432 18.2 11.5807 18.2 11.3158C18.2 8.71897 16.0813 6.60022 13.4844 6.60022ZM13.4 8.40022C13.1844 8.39787 12.9828 8.51037 12.8727 8.69787C12.7649 8.88537 12.7649 9.11506 12.8727 9.30256C12.9828 9.49006 13.1844 9.60256 13.4 9.60021C14.4008 9.60021 15.2 10.3994 15.2 11.4002C15.1977 11.6158 15.3102 11.8174 15.4977 11.9276C15.6852 12.0354 15.9149 12.0354 16.1024 11.9276C16.2899 11.8174 16.4024 11.6158 16.4 11.4002C16.4 9.75022 15.05 8.40022 13.4 8.40022Z" fill="white"/>
</svg>
