<svg width="43" height="44" viewBox="0 0 43 44" fill="none" xmlns="http://www.w3.org/2000/svg">
<path d="M34.0417 5.50004H26.5525C25.8 3.37337 23.8292 1.83337 21.5 1.83337C19.1708 1.83337 17.2 3.37337 16.4475 5.50004H8.95833C6.9875 5.50004 5.375 7.15004 5.375 9.16671V34.8334C5.375 36.85 6.9875 38.5 8.95833 38.5H34.0417C36.0125 38.5 37.625 36.85 37.625 34.8334V9.16671C37.625 7.15004 36.0125 5.50004 34.0417 5.50004ZM21.5 5.50004C22.4854 5.50004 23.2917 6.32504 23.2917 7.33337C23.2917 8.34171 22.4854 9.16671 21.5 9.16671C20.5146 9.16671 19.7083 8.34171 19.7083 7.33337C19.7083 6.32504 20.5146 5.50004 21.5 5.50004ZM17.9167 31.1667L10.75 23.8334L13.2762 21.2484L17.9167 25.9784L29.7237 13.8967L32.25 16.5L17.9167 31.1667Z" fill="white"/>
</svg>
