<svg width="37" height="40" viewBox="0 0 37 40" fill="none" xmlns="http://www.w3.org/2000/svg">
<path d="M18.6499 3.82166C18.3231 3.46515 17.8659 3.28918 17.4063 3.34304C16.9468 3.3969 16.5343 3.6748 16.2844 4.09891L9.86046 15.0002H6.11122C4.42368 15.0002 3.05566 16.4926 3.05566 18.3335V33.3335C3.05566 35.1745 4.42368 36.6668 6.11122 36.6668L10.6946 36.6668C10.6956 36.6668 10.6966 36.6668 10.6976 36.6668H24.2099C27.742 36.6668 30.8136 34.0251 31.6379 30.2783L34.1923 18.667C34.884 15.5229 32.6995 12.5002 29.7356 12.5002H21.389V8.19053C21.389 7.30647 21.0671 6.45863 20.494 5.83351L18.6499 3.82166ZM12.2223 33.3335V17.1563L17.8296 7.64092L18.3334 8.19053V14.1668C18.3334 15.0873 19.0175 15.8335 19.8612 15.8335H29.7356C30.7236 15.8335 31.4517 16.8411 31.2212 17.8891L28.6667 29.5004C28.1721 31.7485 26.3292 33.3335 24.2099 33.3335H12.2223ZM9.16678 33.3335H6.11122V18.3335H9.16678V33.3335Z" fill="white"/>
</svg>
