<svg width="153" height="48" viewBox="0 0 153 48" fill="none" xmlns="http://www.w3.org/2000/svg">
<path d="M40.48 41.28C40.48 43.136 39.808 44.736 38.464 46.08C37.184 47.36 35.616 48 33.76 48H6.88C5.024 48 3.424 47.36 2.08 46.08C0.8 44.736 0.16 43.136 0.16 41.28V7.68C0.16 5.824 0.8 4.256 2.08 2.976C3.424 1.632 5.024 0.959999 6.88 0.959999H33.76C35.616 0.959999 37.184 1.632 38.464 2.976C39.808 4.256 40.48 5.824 40.48 7.68V41.28ZM32.8 41.28V7.68H7.84V41.28H32.8ZM88.945 48H82.225V20.16H62.065V48H55.345V14.4H62.065V19.2L66.865 14.4H82.225C84.081 14.4 85.649 15.072 86.929 16.416C88.273 17.696 88.945 19.264 88.945 21.12V48ZM109.128 8.64H102.408V0.959999H109.128V8.64ZM109.128 48H102.408V19.2L109.128 12.48V48ZM152.324 48H144.068L134.948 34.752H133.988L124.868 48H116.804L130.148 30.336L117.764 14.4H125.828L134.18 26.304H135.14L143.108 14.4H151.364L138.788 30.336L152.324 48Z" fill="black"/>
</svg>
