<svg width="204" height="63" viewBox="0 0 204 63" fill="none" xmlns="http://www.w3.org/2000/svg">
<path d="M54.64 54.04C54.64 56.5147 53.744 58.648 51.952 60.44C50.2453 62.1467 48.1547 63 45.68 63H9.84C7.36533 63 5.232 62.1467 3.44 60.44C1.73333 58.648 0.88 56.5147 0.88 54.04V9.24C0.88 6.76533 1.73333 4.67466 3.44 2.968C5.232 1.176 7.36533 0.279999 9.84 0.279999H45.68C48.1547 0.279999 50.2453 1.176 51.952 2.968C53.744 4.67466 54.64 6.76533 54.64 9.24V54.04ZM44.4 54.04V9.24H11.12V54.04H44.4ZM119.26 63H110.3V25.88H83.42V63H74.46V18.2H83.42V24.6L89.82 18.2H110.3C112.775 18.2 114.865 19.096 116.572 20.888C118.364 22.5947 119.26 24.6853 119.26 27.16V63ZM146.17 10.52H137.21V0.279999H146.17V10.52ZM146.17 63H137.21V24.6L146.17 15.64V63ZM203.765 63H192.757L180.597 45.336H179.317L167.157 63H156.405L174.197 39.448L157.685 18.2H168.437L179.573 34.072H180.853L191.477 18.2H202.485L185.717 39.448L203.765 63Z" fill="white"/>
</svg>
