<?xml version="1.0" standalone="no"?>
<!DOCTYPE svg PUBLIC "-//W3C//DTD SVG 20010904//EN"
 "http://www.w3.org/TR/2001/REC-SVG-20010904/DTD/svg10.dtd">
<svg version="1.0" xmlns="http://www.w3.org/2000/svg"
 width="2448.000000pt" height="2448.000000pt" viewBox="0 0 2448.000000 2448.000000"
 preserveAspectRatio="xMidYMid meet">
<metadata>
Created by potrace 1.14, written by Peter Selinger 2001-2017
</metadata>
<g transform="translate(0.000000,2448.000000) scale(0.100000,-0.100000)"
fill="#000000" stroke="none">
<path d="M997 15924 c-1 -1 -22 -5 -47 -8 -110 -17 -133 -22 -157 -34 -10 -6
-20 -10 -23 -9 -24 3 -221 -88 -228 -105 -2 -5 -8 -8 -14 -8 -9 0 -33 -17
-112 -80 -97 -77 -203 -206 -266 -323 -37 -68 -94 -207 -86 -207 2 0 -2 -21
-10 -47 -8 -26 -17 -81 -21 -122 -8 -97 -9 -5544 0 -5631 28 -287 183 -567
402 -729 75 -56 167 -109 237 -138 59 -24 80 -31 168 -53 19 -5 49 -12 65 -17
17 -4 1061 -9 2320 -10 1936 -2 2302 0 2368 12 272 49 500 191 669 417 107
142 163 274 204 478 4 19 8 224 10 455 1 231 3 422 4 425 1 3 1 10 0 15 -7 26
-5 297 2 301 5 3 5 11 1 17 -10 16 -10 938 0 944 4 2 4 10 0 16 -9 15 -10
2218 0 2224 4 2 4 10 0 16 -10 16 -10 938 0 944 4 2 4 9 1 15 -4 6 -8 77 -10
157 -2 130 -6 169 -39 321 -11 52 -103 240 -117 240 -4 0 -8 6 -8 13 0 26
-176 222 -262 291 -122 98 -288 176 -433 202 -11 1 -33 6 -50 10 -25 6 -4561
14 -4568 8z m4251 -3758 c0 -2011 -3 -2686 -12 -2688 -6 -2 -904 -4 -1996 -4
l-1985 1 0 2688 0 2687 1996 0 1997 0 0 -2684z"/>
<path d="M16387 15915 c-2 -5 -3 -282 -2 -614 l0 -604 515 1 c283 0 525 1 538
1 l22 1 0 613 0 613 -535 0 c-357 0 -536 -4 -538 -11z"/>
<path d="M16914 13537 l-530 -532 1 -2300 0 -2300 538 -3 537 -2 2 2825 c2
1554 2 2830 0 2835 -2 6 -7 10 -10 10 -4 0 -246 -240 -538 -533z"/>
<path d="M8855 11091 l0 -2686 537 -3 538 -2 2 2227 3 2228 1595 0 c877 1
1602 -1 1610 -3 14 -3 15 -252 15 -2225 l0 -2222 538 -3 537 -2 0 52 c4 605
-1 4337 -5 4373 -6 47 -15 95 -29 155 -19 84 -78 209 -148 312 -42 63 -200
227 -263 273 -22 17 -42 32 -45 35 -8 8 -43 29 -70 42 -14 7 -27 15 -30 18
-11 12 -128 58 -134 53 -3 -4 -6 -2 -6 4 0 6 -15 14 -32 17 -18 3 -42 8 -53
11 -11 2 -31 6 -45 9 -14 3 -36 9 -50 12 -14 4 -609 7 -1323 8 l-1299 2 -377
-378 c-208 -208 -381 -378 -385 -378 -3 0 -6 170 -6 378 l0 378 -538 0 -537 0
0 -2685z"/>
<path d="M18850 13770 c0 -5 34 -49 64 -82 9 -10 16 -20 16 -23 0 -3 37 -51
81 -108 45 -56 92 -115 105 -132 76 -99 188 -243 202 -260 10 -11 35 -45 57
-75 22 -30 45 -61 52 -68 6 -7 56 -70 110 -140 54 -70 103 -134 110 -142 7 -8
32 -40 55 -71 67 -88 321 -413 327 -419 3 -3 17 -21 31 -40 32 -46 42 -58 63
-78 9 -9 17 -20 17 -25 0 -4 10 -19 23 -32 12 -13 38 -45 57 -72 19 -26 41
-52 47 -56 7 -4 13 -14 13 -22 0 -7 4 -15 8 -17 4 -1 23 -23 42 -48 19 -24 40
-50 45 -56 6 -7 19 -24 30 -40 11 -15 25 -32 30 -38 6 -6 30 -38 55 -71 45
-59 56 -73 104 -130 14 -16 26 -33 26 -36 0 -3 10 -17 21 -30 12 -13 49 -60
82 -104 34 -44 69 -89 79 -99 10 -11 18 -23 18 -27 0 -6 -75 -110 -105 -146
-26 -32 -476 -628 -495 -657 -24 -36 -84 -111 -92 -114 -5 -2 -8 -10 -8 -17 0
-8 -6 -18 -13 -22 -8 -4 -22 -21 -33 -38 -10 -16 -27 -39 -37 -50 -10 -11 -27
-35 -38 -52 -12 -18 -25 -33 -30 -33 -5 0 -9 -7 -9 -15 0 -8 -3 -15 -7 -15 -5
-1 -24 -24 -43 -52 -19 -28 -42 -58 -50 -67 -8 -10 -31 -39 -49 -67 -19 -27
-38 -51 -41 -54 -3 -3 -19 -23 -35 -45 -17 -22 -32 -42 -35 -45 -3 -3 -37 -48
-75 -100 -38 -52 -74 -100 -80 -106 -5 -6 -21 -27 -35 -47 -14 -20 -28 -37
-32 -37 -5 0 -8 -6 -8 -14 0 -8 -4 -16 -8 -18 -4 -1 -62 -75 -127 -163 -66
-88 -122 -162 -125 -165 -3 -3 -25 -32 -49 -65 -25 -33 -48 -61 -53 -63 -4 -2
-8 -10 -8 -17 0 -7 -3 -15 -8 -17 -4 -1 -70 -86 -146 -188 -77 -102 -150 -198
-163 -215 -12 -16 -30 -39 -38 -50 -8 -11 -24 -32 -36 -47 l-20 -28 645 0 645
0 42 63 c24 34 45 64 48 67 3 3 33 46 66 95 32 50 62 92 65 95 3 3 10 12 15
21 14 23 127 189 184 269 25 36 49 67 53 68 5 2 8 7 8 12 0 4 18 34 40 66 23
33 57 84 77 114 19 30 39 57 42 60 4 3 41 57 84 120 43 63 121 176 173 250 52
74 97 143 100 153 4 9 10 17 14 17 5 0 11 8 14 18 4 10 14 27 24 38 10 10 31
40 47 66 17 27 33 48 38 48 4 0 7 5 7 10 0 9 71 114 100 147 5 7 10 16 10 21
0 4 8 17 18 28 9 10 31 40 47 66 17 27 33 48 38 48 4 0 7 6 8 13 0 6 22 41 48
77 40 54 53 65 75 63 14 -1 24 2 22 6 -3 4 10 5 27 3 18 -2 42 -3 54 -3 12 1
31 -11 42 -27 12 -15 25 -32 31 -39 5 -7 10 -16 10 -22 0 -5 4 -11 8 -13 4 -1
41 -52 82 -113 40 -60 77 -111 82 -113 4 -2 8 -8 8 -13 0 -9 36 -65 50 -79 6
-6 16 -20 121 -173 41 -60 79 -116 84 -125 6 -9 15 -21 20 -28 6 -7 44 -62 85
-124 41 -62 80 -117 85 -124 24 -28 75 -105 75 -114 0 -6 3 -12 8 -14 11 -4
82 -106 82 -117 0 -5 3 -11 8 -13 9 -4 122 -165 122 -174 0 -4 8 -14 18 -23 9
-9 23 -28 31 -43 8 -15 22 -37 33 -47 10 -11 18 -25 18 -31 0 -5 4 -10 9 -10
5 0 11 -8 15 -17 3 -10 53 -85 111 -168 57 -82 110 -158 117 -169 7 -10 21
-29 31 -41 9 -13 17 -28 17 -33 0 -6 4 -12 8 -14 5 -1 23 -24 41 -50 l32 -48
660 0 660 0 -43 58 c-24 31 -45 59 -48 62 -3 3 -25 32 -50 65 -62 82 -72 95
-92 117 -10 10 -15 18 -10 18 4 0 3 4 -3 8 -5 4 -39 45 -75 92 -36 47 -70 92
-77 100 -7 8 -26 33 -42 55 -16 22 -59 78 -96 125 -36 47 -73 96 -83 108 -36
50 -127 167 -132 172 -3 3 -17 21 -30 40 -14 19 -30 42 -37 50 -54 69 -111
142 -123 160 -8 12 -20 28 -25 34 -9 10 -67 84 -87 111 -4 6 -34 44 -66 85
-32 41 -69 91 -82 110 -13 19 -29 40 -35 46 -12 13 -25 29 -162 209 -59 77
-110 142 -115 143 -4 2 -8 10 -8 18 0 8 -4 14 -8 14 -4 0 -15 12 -24 28 -9 15
-27 39 -40 53 -13 14 -34 41 -48 60 -31 44 -34 47 -68 89 -15 19 -39 51 -52
70 -13 19 -27 37 -30 40 -3 3 -19 23 -36 45 -16 22 -33 45 -39 51 -5 6 -17 21
-25 34 -8 12 -25 34 -36 48 -59 73 -172 221 -194 255 -14 20 -28 37 -32 37
-19 0 -4 28 49 94 70 86 64 79 115 146 24 30 45 57 48 60 3 3 21 25 40 50 19
25 37 47 40 50 3 3 19 23 36 45 16 22 34 45 39 51 6 7 20 25 32 40 88 115 229
290 235 292 5 2 8 7 8 12 0 5 9 19 20 32 11 12 35 43 55 68 19 25 41 52 48 60
7 8 44 56 82 105 38 50 73 95 79 100 6 6 31 37 56 70 25 33 47 62 50 65 3 3
21 25 40 50 19 25 40 52 47 60 7 8 35 44 64 80 28 36 58 74 67 85 10 11 29 36
43 55 15 19 35 45 46 57 11 12 28 34 39 48 10 15 26 35 35 45 8 10 24 31 35
45 10 15 24 32 29 39 9 9 117 147 273 345 15 19 50 63 77 97 28 34 59 74 70
90 11 15 25 32 30 38 17 18 65 82 65 88 0 2 -296 4 -657 4 l-657 -1 -53 -79
c-29 -43 -53 -82 -53 -86 0 -5 -3 -10 -7 -12 -5 -1 -33 -41 -63 -87 -30 -46
-59 -89 -65 -95 -5 -6 -16 -23 -24 -38 -8 -15 -22 -36 -31 -46 -9 -10 -19 -22
-21 -27 -6 -14 -387 -587 -402 -605 -7 -8 -46 -67 -87 -130 -41 -63 -77 -117
-80 -120 -12 -10 -70 -101 -70 -111 0 -5 -4 -9 -9 -9 -5 0 -13 -9 -16 -20 -3
-11 -12 -26 -18 -32 -7 -7 -48 -67 -91 -132 -44 -66 -83 -125 -88 -130 -4 -6
-27 -40 -51 -76 l-42 -65 -77 -3 c-75 -2 -78 -1 -95 25 -10 16 -20 30 -23 33
-8 7 -156 217 -175 249 -5 9 -13 18 -16 21 -3 3 -20 28 -39 55 -19 28 -36 52
-39 55 -14 12 -51 70 -51 80 0 5 -3 10 -7 10 -5 0 -24 25 -43 55 -19 30 -38
54 -42 55 -5 0 -8 7 -8 15 0 8 -4 15 -9 15 -5 0 -13 9 -16 20 -3 11 -12 26
-19 32 -12 14 -114 157 -234 331 -23 34 -49 71 -58 82 -9 11 -110 155 -225
320 -115 165 -216 308 -224 317 -7 9 -19 27 -26 40 -6 13 -15 25 -18 28 -4 3
-16 19 -28 35 l-21 30 -641 0 c-353 1 -641 -2 -641 -5z"/>
</g>
</svg>
