<svg width="43" height="44" fill="none" xmlns="http://www.w3.org/2000/svg"><path d="M34.042 5.5h-7.49C25.8 3.373 23.83 1.833 21.5 1.833c-2.33 0-4.3 1.54-5.052 3.667h-7.49c-1.97 0-3.583 1.65-3.583 3.667v25.666c0 2.017 1.612 3.667 3.583 3.667h25.084c1.97 0 3.583-1.65 3.583-3.667V9.167c0-2.017-1.612-3.667-3.583-3.667ZM21.5 5.5c.985 0 1.792.825 1.792 1.833 0 1.009-.807 1.834-1.792 1.834s-1.792-.825-1.792-1.834c0-1.008.807-1.833 1.792-1.833Zm-3.583 25.667-7.167-7.334 2.526-2.585 4.64 4.73 11.808-12.081L32.25 16.5 17.917 31.167Z" fill="#fff"/></svg>