<svg width="26" height="29" fill="none" xmlns="http://www.w3.org/2000/svg"><path d="M12.456.6A21.36 21.36 0 0 0 9.99.755c-1.582.194-3.15.518-4.655 1.21C2.942 3.062 1.245 4.928.753 7.64a35.708 35.708 0 0 0-.473 3.47c-.185 2.267-.07 4.54.572 6.774.506 1.76 1.439 3.343 3.072 4.37.692.433 1.603.644 2.08.864.133.063.166.1.173.11.007.007.025.024.023.164-.016 1.435 0 4.21 0 4.21l.002.597h1.071l.174-.168s2.721-2.619 3.705-3.697c.179-.192.27-.3.289-.311.016-.012-.012-.02.17-.024 1.292-.026 2.581-.075 3.87-.145 1.7-.094 3.432-.256 5.098-.952 1.45-.607 2.662-1.598 3.396-3.084.75-1.523 1.15-3.138 1.3-4.81.25-2.781.163-5.568-.606-8.315-.453-1.61-1.362-2.972-2.756-3.933-1.67-1.148-3.551-1.58-5.393-1.854A27.889 27.889 0 0 0 13.273.61a23.722 23.722 0 0 0-.817-.01Zm.785 1.21a25.75 25.75 0 0 1 3.103.283c1.776.265 3.452.668 4.889 1.657 1.165.802 1.891 1.885 2.28 3.265.717 2.569.809 5.2.567 7.89-.138 1.548-.506 3.008-1.183 4.384-.598 1.214-1.53 1.985-2.782 2.508-1.453.607-3.033.769-4.697.86-1.275.07-2.552.117-3.83.143-.32.007-.635.092-.857.256-.223.164-.324.316-.462.466-.703.769-2.105 2.121-2.869 2.862-.005-.896-.012-1.978 0-2.977.005-.307-.066-.62-.241-.87-.176-.248-.418-.398-.65-.505-.677-.315-1.563-.554-1.947-.795-1.343-.844-2.105-2.11-2.557-3.684-.593-2.06-.706-4.182-.53-6.34.094-1.12.255-2.243.46-3.357.426-2.346 1.767-3.822 3.9-4.802 1.347-.619 2.786-.923 4.302-1.108a20.515 20.515 0 0 1 3.104-.136Zm.253 2.99c-.495 0-.975.056-1.442.16a.602.602 0 0 0 .267 1.172A5.243 5.243 0 0 1 13.495 6a5.283 5.283 0 0 1 5.292 5.29c0 .405-.045.8-.131 1.179a.6.6 0 1 0 1.17.263c.105-.465.161-.945.161-1.442 0-3.576-2.913-6.49-6.492-6.49ZM7.508 6.003a1.14 1.14 0 0 0-.305.025C6.113 6.27 5.03 7.06 5 8.471c.03.196.028.407.1.585.357.872.666 1.772 1.112 2.597 2.168 4.008 5.447 6.795 9.626 8.564.499.211 1.014.256 1.518.045.694-.288 1.282-.734 1.674-1.373.536-.88.543-1.489-.34-2.138-.579-.427-1.149-.865-1.735-1.282-.892-.633-1.858-.743-2.524.368-.035.056-.086.103-.131.15-.342.363-.762.452-1.207.27-1.69-.697-2.995-1.82-3.783-3.49-.464-.982-.337-1.475.53-2.128a2.96 2.96 0 0 0 .248-.204c.38-.347.48-.76.256-1.226A9.595 9.595 0 0 0 8.3 6.378c-.232-.22-.497-.359-.792-.375Zm5.976.597a4.61 4.61 0 0 0-.785.066.602.602 0 0 0-.382.984.603.603 0 0 0 .584.197c.187-.03.384-.047.583-.047A3.505 3.505 0 0 1 17 11.316c0 .2-.016.396-.047.583-.047.216.03.441.197.584a.601.601 0 0 0 .984-.382 4.725 4.725 0 0 0-4.65-5.5ZM13.4 8.4a.603.603 0 0 0-.527.298.606.606 0 0 0 0 .605c.11.187.311.3.527.297 1 0 1.8.8 1.8 1.8a.604.604 0 0 0 .298.528.606.606 0 0 0 .604 0c.188-.11.3-.312.298-.528 0-1.65-1.35-3-3-3Z" fill="#fff"/></svg>